<svg version="1.1" id="Layer_1" xmlns="http://www.w3.org/2000/svg" xmlns:xlink="http://www.w3.org/1999/xlink" x="0px" y="0px"
	 width="100%" viewBox="0 0 590 1004" enable-background="new 0 0 590 1004" xml:space="preserve">
<path fill="#FFFFFF" opacity="1.000000" stroke="none" 
	d="
M1.000003,397.000000 
	C1.000000,277.978577 1.000000,158.957138 1.468529,39.464508 
	C8.631406,38.977818 15.325752,38.962318 22.484909,38.960224 
	C27.975443,38.950539 33.001171,38.927452 38.490738,38.929523 
	C43.979248,38.924648 49.003914,38.894608 54.477745,38.901901 
	C58.609684,38.657391 62.292465,38.375549 66.402176,38.102554 
	C70.230217,38.339382 73.631332,38.567364 77.492393,38.846169 
	C82.320961,38.837803 86.689583,38.778614 91.514938,38.785355 
	C96.324692,38.795925 100.677711,38.740574 105.419975,38.776749 
	C106.867500,38.819851 107.925774,38.771427 109.380356,38.818718 
	C110.855865,38.859596 111.935074,38.804760 113.394310,38.816391 
	C114.534554,38.797043 115.294762,38.711231 116.504112,38.718548 
	C120.643044,38.739197 124.332825,38.666721 128.462433,38.708900 
	C131.604477,38.733337 134.306671,38.643120 137.439240,38.672256 
	C139.920395,38.692467 141.971176,38.593319 144.397888,38.626854 
	C146.580490,38.652290 148.387146,38.545044 150.375153,38.458427 
	C150.556488,38.479053 150.908844,38.383728 151.228760,38.452343 
	C151.981995,38.490582 152.415344,38.460201 153.122162,38.582691 
	C154.227631,38.763229 155.059631,38.790905 156.281464,38.924843 
	C159.535950,39.218781 161.294876,38.214451 161.068451,34.791500 
	C161.127213,34.576408 161.156601,34.131432 161.345230,33.986946 
	C161.783478,33.632664 161.958664,33.372704 162.328674,32.861565 
	C163.747589,30.443085 164.897232,28.225620 166.152985,25.908226 
	C166.259064,25.808296 166.164001,25.532751 166.441772,25.354191 
	C166.869736,24.773157 167.019913,24.370682 167.235138,23.871628 
	C167.300201,23.775047 167.175568,23.578308 167.460281,23.415154 
	C167.949692,22.872761 168.154388,22.493521 168.567245,21.995350 
	C168.909088,21.433693 169.042770,20.990971 169.429688,20.435354 
	C169.895920,19.869829 170.108902,19.417198 170.539322,18.692451 
	C170.812561,18.194929 170.868378,17.969522 171.174240,17.623302 
	C171.616058,17.002800 171.807816,16.503115 172.109222,15.896328 
	C172.218887,15.789226 172.157288,15.488914 172.411026,15.321242 
	C172.800079,14.782902 172.935379,14.412231 173.349823,13.853045 
	C175.752640,9.443019 177.876328,5.221510 180.000000,1.000001 
	C257.021423,1.000000 334.042877,1.000000 411.440521,1.367142 
	C417.825256,12.199593 423.833771,22.664902 429.832611,33.115173 
	C429.822968,33.100136 429.829224,33.141415 429.906311,33.388462 
	C430.255981,33.823410 430.528595,34.011307 430.803589,34.128819 
	C430.805939,34.058434 430.734131,34.179604 430.723511,34.485344 
	C431.073303,35.246056 431.433746,35.701035 431.809265,36.178814 
	C431.824310,36.201618 431.771362,36.215168 431.783691,36.502274 
	C432.153534,37.219013 432.511017,37.648647 432.995789,38.306828 
	C433.446747,38.565575 433.770416,38.595772 434.496857,38.713905 
	C436.261322,38.705006 437.622986,38.608170 439.384338,38.648956 
	C441.182922,38.709419 442.581787,38.632259 444.421600,38.686493 
	C448.229889,38.730408 451.597229,38.642933 455.409851,38.688019 
	C459.557190,38.739189 463.259277,38.657799 467.410278,38.706554 
	C471.558350,38.762402 475.257507,38.688099 479.400269,38.726280 
	C482.882172,38.781425 485.920441,38.724083 489.416077,38.772846 
	C493.898560,38.827564 497.923706,38.776176 502.411102,38.807487 
	C507.568756,38.858604 512.264160,38.827023 517.426147,38.856987 
	C523.581543,38.894825 529.270264,38.871113 535.427368,38.893707 
	C541.586182,38.927864 547.276550,38.915710 553.435059,38.932762 
	C558.928162,38.955215 563.953247,38.948460 569.447510,38.958916 
	C576.944519,38.650753 583.972229,38.325378 591.000000,38.000000 
	C591.000000,157.354767 591.000000,276.709534 590.682983,396.304108 
	C590.136230,396.784363 589.846924,396.990417 589.685181,397.270172 
	C549.246155,467.233154 508.802826,537.193665 468.483368,607.225525 
	C467.703552,608.579956 467.727051,611.139709 468.490753,612.520508 
	C473.801422,622.122559 479.407227,631.561401 484.894989,641.405945 
	C477.017975,655.459290 469.199585,669.179810 461.244141,682.820435 
	C460.605286,683.915771 459.023712,684.461426 457.640839,685.018433 
	C448.418427,684.673584 439.435425,684.487488 430.452393,684.485291 
	C341.461090,684.463623 252.469803,684.460815 163.478531,684.502075 
	C158.328262,684.504456 153.178177,684.933838 147.646683,685.067383 
	C146.488007,685.037659 145.710678,685.104980 144.608643,684.943604 
	C142.310791,684.634338 140.305511,684.289551 138.370728,684.524780 
	C133.333420,685.137268 130.312332,683.396912 127.905663,678.608521 
	C124.231346,671.298035 119.512337,664.512634 115.221207,657.360291 
	C115.205559,657.216309 115.002525,657.009766 114.998962,656.646179 
	C112.367310,651.200928 109.739227,646.119263 107.305756,640.763306 
	C110.403107,635.443542 113.318436,630.405212 116.205032,625.350464 
	C119.090141,620.298340 124.225731,615.212463 124.187218,610.173340 
	C124.147095,604.924011 119.207207,599.652710 116.230576,594.494324 
	C78.822823,529.669250 41.387409,464.860138 3.913644,400.073181 
	C3.226188,398.884644 1.983582,398.017242 1.000003,397.000000 
z"/>
<path fill="#19192D" opacity="1.000000" stroke="none" 
	d="
M591.000000,964.000000 
	C591.000000,977.657776 591.000000,991.315491 591.000000,1004.955688 
	C394.333344,1004.955688 197.666656,1004.955688 1.000000,1004.955688 
	C1.000000,991.586670 1.000000,978.261963 1.258075,964.255371 
	C3.032508,960.740784 4.548865,957.908081 6.032022,955.048889 
	C5.998823,955.022400 6.075963,955.054565 6.359679,954.876831 
	C11.227610,946.590698 15.811826,938.482239 20.320805,930.386414 
	C20.245569,930.398987 20.376776,930.321106 20.652969,930.144287 
	C22.091534,927.749817 23.253904,925.532166 24.271667,923.132690 
	C24.127060,922.950867 24.396736,923.327209 24.668879,923.147217 
	C41.695839,894.061646 58.491074,865.179382 75.189293,836.241150 
	C84.237991,820.559692 93.121468,804.782837 102.041122,789.027588 
	C102.002769,789.006165 102.055580,789.076477 102.341988,788.895081 
	C109.754402,776.464233 116.880409,764.214844 124.245323,751.554749 
	C125.758728,753.510742 126.750923,754.793152 127.816505,756.368652 
	C128.212418,756.859619 128.534943,757.057434 128.900513,757.225220 
	C128.943573,757.195251 128.840485,757.175720 129.087860,757.539307 
	C130.992798,757.978149 132.650330,758.118713 134.307892,758.119202 
	C188.095993,758.135315 241.884109,758.139771 295.672211,758.142090 
	C348.294617,758.144409 400.917114,758.165161 453.539246,758.054199 
	C455.524780,758.049988 457.507568,756.750610 459.720886,755.861755 
	C460.686249,754.256958 461.422394,752.845215 462.397217,751.218140 
	C462.865326,750.418518 463.094757,749.834351 463.194092,749.136780 
	C463.064056,749.023438 463.300690,749.274475 463.571777,749.145630 
	C464.125275,748.495972 464.407715,747.975098 465.002045,747.637207 
	C465.844879,748.305664 466.375793,748.791138 466.936035,749.478699 
	C466.965332,749.680847 467.251434,749.972534 467.245117,750.201172 
	C467.322327,750.753662 467.522400,750.969360 467.911255,751.418274 
	C469.304108,753.855103 470.624756,755.950500 471.973145,758.024658 
	C472.000854,758.003418 471.947540,758.052246 471.988831,758.384827 
	C472.999481,760.172424 473.968872,761.627502 474.967407,763.045471 
	C474.996521,763.008423 474.913300,763.052612 474.947693,763.400635 
	C476.304199,765.859619 477.626282,767.970520 478.971191,770.046143 
	C478.994049,770.010864 478.915283,770.040283 478.957458,770.396179 
	C481.914093,775.574829 484.828522,780.397522 487.789856,785.095703 
	C487.836761,784.971191 487.707764,785.204285 487.759521,785.559082 
	C492.420807,793.713684 497.030334,801.513611 501.788025,809.164185 
	C501.936218,809.014954 501.616058,809.287903 501.672241,809.634888 
	C503.147675,812.316772 504.566925,814.651672 505.989655,816.994751 
	C505.993134,817.002930 506.005280,817.015991 506.040161,817.348816 
	C507.032440,819.138855 507.989838,820.596130 508.974823,822.029541 
	C509.002380,822.005737 508.937775,822.037231 508.953552,822.328918 
	C509.317841,823.059631 509.666321,823.498657 510.002686,823.963074 
	C509.990601,823.988464 510.046631,823.993530 510.087524,824.343994 
	C513.403625,830.140747 516.678833,835.586975 519.977295,841.019409 
	C520.000488,841.005554 519.960510,841.044800 520.004089,841.397339 
	C522.955750,846.571960 525.863892,851.393982 528.827026,856.137451 
	C528.882080,856.058899 528.720703,856.162659 528.768982,856.518921 
	C532.203613,862.594055 535.589905,868.312866 538.989014,874.017029 
	C539.001709,874.002380 538.968933,874.019958 539.012573,874.374023 
	C542.344055,880.187622 545.631897,885.647034 548.949951,891.059021 
	C548.980225,891.011536 548.883423,891.069153 548.927246,891.415894 
	C550.293518,893.869751 551.616028,895.976868 552.966797,898.046570 
	C552.995056,898.009155 552.911499,898.051697 552.961548,898.405029 
	C555.910950,903.586426 558.810303,908.414429 561.757202,913.276733 
	C561.804749,913.310974 561.690063,913.286682 561.750732,913.632080 
	C563.848816,917.335632 565.886292,920.693787 567.961670,924.037476 
	C567.999573,924.023132 567.936157,924.075317 567.982056,924.417358 
	C569.338196,926.859070 570.648499,928.958862 571.980957,931.034302 
	C572.003052,931.010071 571.939148,931.024841 571.980408,931.325684 
	C572.291992,931.916199 572.562378,932.205811 572.845825,932.646362 
	C572.858887,932.797241 573.072632,933.012024 573.111389,933.358032 
	C576.418396,939.152222 579.686707,944.600464 582.977905,950.025208 
	C583.000854,950.001709 582.948669,950.040344 583.002197,950.391479 
	C585.703796,955.161743 588.351929,959.580872 591.000000,964.000000 
z"/>
<path fill="#FF9920" opacity="1.000000" stroke="none" 
	d="
M573.072632,933.012024 
	C573.072632,933.012024 572.858887,932.797241 572.834106,932.329590 
	C572.519287,931.582947 572.229187,931.303894 571.939148,931.024841 
	C571.939148,931.024841 572.003052,931.010071 572.010437,930.654724 
	C570.657227,928.224670 569.296692,926.150024 567.936157,924.075317 
	C567.936157,924.075317 567.999573,924.023132 568.000977,923.647583 
	C565.898315,919.943542 563.794189,916.615112 561.690063,913.286682 
	C561.690063,913.286682 561.804749,913.310974 561.850952,912.893494 
	C558.901917,907.667908 555.906677,902.859802 552.911499,898.051697 
	C552.911499,898.051697 552.995056,898.009155 553.005005,897.655518 
	C551.637756,895.224304 550.260559,893.146729 548.883423,891.069153 
	C548.883423,891.069153 548.980225,891.011536 548.989258,890.674927 
	C546.500122,885.300110 544.058777,880.231873 541.435547,875.259521 
	C541.085999,874.596985 539.813843,874.421143 538.968933,874.019958 
	C538.968933,874.019958 539.001709,874.002380 539.012451,873.631592 
	C535.589050,867.561462 532.154907,861.862061 528.720703,856.162659 
	C528.720703,856.162659 528.882080,856.058899 528.906128,855.750427 
	C525.940247,850.642883 522.950378,845.843872 519.960510,841.044800 
	C519.960510,841.044800 520.000488,841.005554 520.005310,840.639954 
	C516.688965,834.847412 513.367798,829.420471 510.046631,823.993530 
	C510.046631,823.993530 509.990601,823.988464 509.996887,823.664062 
	C509.648071,822.905457 509.292908,822.471375 508.937775,822.037231 
	C508.937775,822.037231 509.002380,822.005737 509.009338,821.645508 
	C508.012604,819.862122 507.008942,818.439026 506.005310,817.015991 
	C506.005280,817.015991 505.993134,817.002930 506.009705,816.612915 
	C504.556244,813.911194 503.086151,811.599548 501.616058,809.287903 
	C501.616058,809.287903 501.936218,809.014954 501.883820,808.782715 
	C499.034485,803.331055 496.373138,798.032410 493.385956,792.924194 
	C491.782257,790.181885 489.618683,787.766968 487.707764,785.204285 
	C487.707764,785.204285 487.836761,784.971191 487.873718,784.708374 
	C484.912170,779.643860 481.913727,774.842041 478.915283,770.040283 
	C478.915283,770.040283 478.994049,770.010864 479.009460,769.655273 
	C477.654358,767.217346 476.283813,765.135010 474.913269,763.052612 
	C474.913300,763.052612 474.996521,763.008423 475.002350,762.670288 
	C473.987976,760.905518 472.967743,759.478882 471.947510,758.052246 
	C471.947540,758.052246 472.000854,758.003418 472.004181,757.654785 
	C471.012238,755.199158 470.016937,753.092102 468.881104,750.751526 
	C468.244232,750.336121 467.747833,750.154297 467.251434,749.972534 
	C467.251434,749.972534 466.965332,749.680847 466.979370,749.043213 
	C467.198822,746.619507 466.931488,744.589600 467.702271,743.095093 
	C469.667542,739.284607 472.037231,735.675354 474.352722,732.054382 
	C478.228912,725.992615 479.991150,719.811462 475.892395,713.114685 
	C471.513794,705.960632 467.336395,698.674133 462.703339,691.689514 
	C460.823639,688.855652 460.906372,686.721130 462.572754,683.993347 
	C468.197784,674.785583 473.730774,665.520142 479.186340,656.210693 
	C486.604523,643.552368 493.943451,630.847351 501.270050,618.135681 
	C507.036163,608.131409 512.779114,598.112915 518.409119,588.031921 
	C519.257507,586.512756 519.433777,584.618225 519.949097,582.943298 
	C519.977234,582.989258 519.887695,582.929260 520.240479,582.920532 
	C521.284607,582.243347 522.166687,581.687805 522.639160,580.889709 
	C532.288452,564.589172 541.950256,548.295532 551.482727,531.926575 
	C558.346313,520.140564 565.017395,508.242523 571.789062,496.402802 
	C575.592102,489.753540 579.280457,483.032166 583.300415,476.515961 
	C585.574280,472.830078 588.414795,469.493774 591.000000,466.000000 
	C591.000000,630.358215 591.000000,794.716492 590.724121,959.347290 
	C587.948303,956.426697 585.448486,953.233521 582.948669,950.040344 
	C582.948669,950.040344 583.000854,950.001709 583.010803,949.631897 
	C581.170227,942.948242 578.388489,937.204468 573.072632,933.012024 
z"/>
<path fill="#FF9920" opacity="1.000000" stroke="none" 
	d="
M115.002518,657.009766 
	C115.002525,657.009766 115.205559,657.216309 115.143677,657.770874 
	C117.535904,663.125061 119.370361,668.395325 122.580551,672.620483 
	C128.258026,680.092896 128.266983,686.782043 122.945641,694.436096 
	C118.114555,701.385010 114.102219,708.918274 109.971672,716.329224 
	C108.828499,718.380371 107.295570,721.549927 108.089806,723.118530 
	C111.935371,730.713501 116.212074,738.141113 120.978096,745.194092 
	C122.892883,748.027649 123.272728,749.986328 121.590790,752.755005 
	C115.846275,762.211121 110.081070,771.658264 104.574585,781.252808 
	C103.240685,783.577026 102.869461,786.453796 102.055573,789.076477 
	C102.055580,789.076477 102.002769,789.006165 101.692703,789.043213 
	C96.407242,793.768433 93.744667,799.845154 90.554939,805.766296 
	C82.196037,821.283020 73.039177,836.370300 64.181755,851.617920 
	C53.222935,870.482849 42.150658,889.282837 31.341955,908.233276 
	C28.608368,913.025879 26.689819,918.283325 24.396744,923.327209 
	C24.396736,923.327209 24.127060,922.950867 23.893347,923.135376 
	C20.996092,924.917786 19.241861,926.942078 20.376776,930.321106 
	C20.376776,930.321106 20.245569,930.398987 19.949873,930.297119 
	C16.500610,935.061279 13.127205,939.802673 10.273405,944.838501 
	C8.472579,948.016235 7.448464,951.634094 6.075958,955.054565 
	C6.075963,955.054565 5.998823,955.022400 5.694469,955.041382 
	C3.926741,956.040222 2.463365,957.020081 0.999995,958.000000 
	C1.000000,793.642578 1.000000,629.285156 1.277167,464.657898 
	C5.579253,471.586487 9.523206,478.831757 13.648285,485.972351 
	C19.660631,496.379822 25.686041,506.783813 31.959337,517.034180 
	C33.926933,520.249207 36.710983,522.964539 39.076450,525.958191 
	C39.031578,526.007812 39.098293,525.892090 39.052605,526.287842 
	C41.953648,532.533325 44.863838,538.402344 47.912369,544.198547 
	C48.172909,544.693909 49.353710,544.705200 50.068520,544.965942 
	C50.030041,544.990540 50.063068,544.905396 50.029030,545.312134 
	C50.142677,547.026672 49.891312,548.569580 50.501484,549.604675 
	C55.185734,557.550476 59.990364,565.427002 64.889481,573.242371 
	C65.596710,574.370667 67.008110,575.057434 68.054001,575.968567 
	C68.014343,575.988586 68.059326,575.911926 68.023926,576.307495 
	C68.237114,579.516663 68.326500,582.435059 72.051308,582.967468 
	C72.011749,583.001099 72.070534,582.915649 72.039200,583.298706 
	C75.027748,589.507690 77.971649,595.374512 81.086235,601.149353 
	C85.239677,608.850281 89.409409,616.546936 93.784966,624.122437 
	C99.061272,633.257629 104.485779,642.310059 110.018501,651.292175 
	C111.326523,653.415649 113.322830,655.115234 115.002518,657.009766 
z"/>
<path fill="#1B1B2C" opacity="1.000000" stroke="none" 
	d="
M1.000003,397.468658 
	C1.983582,398.017242 3.226188,398.884644 3.913644,400.073181 
	C41.387409,464.860138 78.822823,529.669250 116.230576,594.494324 
	C119.207207,599.652710 124.147095,604.924011 124.187218,610.173340 
	C124.225731,615.212463 119.090141,620.298340 116.205032,625.350464 
	C113.318436,630.405212 110.403107,635.443542 106.949173,640.710632 
	C103.258850,635.688416 100.093269,630.460266 96.985695,625.197876 
	C88.667358,611.111633 80.373901,597.010742 72.070541,582.915649 
	C72.070534,582.915649 72.011749,583.001099 71.998550,582.624268 
	C70.676689,580.135559 69.368011,578.023743 68.059326,575.911926 
	C68.059326,575.911926 68.014343,575.988586 68.001740,575.617432 
	C62.013771,565.132629 56.038414,555.019043 50.063065,544.905396 
	C50.063068,544.905396 50.030041,544.990540 50.023304,544.611084 
	C46.377140,538.118469 42.737713,532.005310 39.098289,525.892090 
	C39.098293,525.892090 39.031578,526.007812 39.027748,525.606689 
	C34.823929,517.875183 30.677208,510.513519 26.412682,503.220795 
	C17.976242,488.793732 9.474652,474.404724 1.000000,460.000000 
	C1.000000,439.312439 1.000000,418.624878 1.000003,397.468658 
z"/>
<path fill="#1B1B2C" opacity="1.000000" stroke="none" 
	d="
M484.918365,641.052551 
	C479.407227,631.561401 473.801422,622.122559 468.490753,612.520508 
	C467.727051,611.139709 467.703552,608.579956 468.483368,607.225525 
	C508.802826,537.193665 549.246155,467.233154 589.685181,397.270172 
	C589.846924,396.990417 590.136230,396.784363 590.682983,396.771973 
	C591.000000,417.687561 591.000000,438.375122 590.720581,459.720581 
	C574.540344,487.817566 558.603088,515.235657 542.754395,542.704834 
	C535.046875,556.063721 527.504700,569.518127 519.887695,582.929260 
	C519.887695,582.929260 519.977234,582.989258 519.665527,583.128052 
	C508.885986,601.307190 498.432709,619.356079 487.921234,637.370972 
	C487.132843,638.722168 485.929047,639.831055 484.918365,641.052551 
z"/>
<path fill="#FEF0DE" opacity="1.000000" stroke="none" 
	d="
M22.020100,38.946823 
	C15.325752,38.962318 8.631406,38.977818 1.468529,38.996658 
	C1.000000,26.428135 1.000000,13.856270 1.000000,1.000000 
	C7.684717,1.000000 14.373446,1.000000 21.530823,1.468657 
	C22.006348,14.273817 22.013224,26.610321 22.020100,38.946823 
z"/>
<path fill="#FEF0DE" opacity="1.000000" stroke="none" 
	d="
M591.000000,37.531342 
	C583.972229,38.325378 576.944519,38.650753 569.460693,38.574738 
	C569.687805,35.987152 570.860474,33.825222 570.970276,31.610590 
	C571.475708,21.415100 571.684692,11.204914 572.000000,1.000000 
	C578.283447,1.000000 584.566833,1.000000 591.000000,1.000000 
	C591.000000,13.020554 591.000000,25.041618 591.000000,37.531342 
z"/>
<path fill="#FFEBD2" opacity="1.000000" stroke="none" 
	d="
M571.532043,1.000000 
	C571.684692,11.204914 571.475708,21.415100 570.970276,31.610590 
	C570.860474,33.825222 569.687805,35.987152 568.991455,38.557526 
	C563.953247,38.948460 558.928162,38.955215 553.455444,38.520515 
	C553.338501,35.313606 553.920410,32.551247 553.954468,29.782152 
	C554.072510,20.189367 554.000000,10.594237 554.000000,1.000000 
	C559.688049,1.000000 565.376038,1.000000 571.532043,1.000000 
z"/>
<path fill="#FFE3C3" opacity="1.000000" stroke="none" 
	d="
M553.532410,1.000000 
	C554.000000,10.594237 554.072510,20.189367 553.954468,29.782152 
	C553.920410,32.551247 553.338501,35.313606 552.987366,38.491306 
	C547.276550,38.915710 541.586182,38.927864 535.447510,38.511681 
	C535.666138,34.125797 536.768982,30.183664 536.909607,26.207499 
	C537.206482,17.814434 537.000000,9.403565 537.000000,1.000000 
	C542.354919,1.000000 547.709900,1.000000 553.532410,1.000000 
z"/>
<path fill="#FEDCB2" opacity="1.000000" stroke="none" 
	d="
M536.533142,1.000000 
	C537.000000,9.403565 537.206482,17.814434 536.909607,26.207499 
	C536.768982,30.183664 535.666138,34.125797 534.979126,38.465378 
	C529.270264,38.871113 523.581543,38.894825 517.447327,38.502502 
	C520.853394,33.697586 521.266296,28.480478 521.064941,22.924561 
	C520.800354,15.625178 521.000000,8.308971 521.000000,1.000000 
	C526.022095,1.000000 531.044189,1.000000 536.533142,1.000000 
z"/>
<path fill="#FED5A2" opacity="1.000000" stroke="none" 
	d="
M520.533142,1.000000 
	C521.000000,8.308971 520.800354,15.625178 521.064941,22.924561 
	C521.266296,28.480478 520.853394,33.697586 516.980713,38.440956 
	C512.264160,38.827023 507.568756,38.858604 502.433411,38.444717 
	C505.962311,33.875938 504.954712,28.691824 504.986176,23.751631 
	C505.034485,16.168032 504.999603,8.583903 505.000000,1.000000 
	C510.022095,1.000000 515.044189,1.000000 520.533142,1.000000 
z"/>
<path fill="#FFEBD2" opacity="1.000000" stroke="none" 
	d="
M22.484909,38.960224 
	C22.013224,26.610321 22.006348,14.273817 21.999737,1.468657 
	C26.689257,1.000000 31.378511,1.000000 36.533638,1.468657 
	C37.713959,14.249327 35.599682,26.639954 38.026897,38.904366 
	C33.001171,38.927452 27.975443,38.950539 22.484909,38.960224 
z"/>
<path fill="#FFCC8F" opacity="1.000000" stroke="none" 
	d="
M105.030724,38.685223 
	C100.677711,38.740574 96.324692,38.795925 91.491455,38.429813 
	C88.105270,33.908810 87.802979,29.295959 87.940018,24.441135 
	C88.160423,16.633080 87.999695,8.814267 88.000000,1.000000 
	C92.356903,1.000000 96.713799,1.000000 101.534805,1.468657 
	C103.057381,14.182668 99.308525,26.824642 105.030724,38.685223 
z"/>
<path fill="#FED5A2" opacity="1.000000" stroke="none" 
	d="
M87.535355,1.000000 
	C87.999695,8.814267 88.160423,16.633080 87.940018,24.441135 
	C87.802979,29.295959 88.105270,33.908810 91.034721,38.363888 
	C86.689583,38.778614 82.320961,38.837803 77.475960,38.483345 
	C73.024872,33.078175 74.045982,27.175982 74.009491,21.480972 
	C73.965752,14.654242 73.999695,7.827013 74.000000,1.000000 
	C78.356903,1.000000 82.713799,1.000000 87.535355,1.000000 
z"/>
<path fill="#FFE5C6" opacity="1.000000" stroke="none" 
	d="
M38.490738,38.929527 
	C35.599682,26.639954 37.713959,14.249327 36.999756,1.468657 
	C41.024544,1.000000 45.049088,1.000000 49.536850,1.468657 
	C51.485241,14.230872 46.340054,27.247757 54.028584,38.864571 
	C49.003914,38.894608 43.979248,38.924648 38.490738,38.929527 
z"/>
<path fill="#FEC682" opacity="1.000000" stroke="none" 
	d="
M488.958740,38.666740 
	C485.920441,38.724083 482.882172,38.781425 479.423889,38.339890 
	C479.335541,35.390545 479.925751,32.942982 479.953308,30.489096 
	C480.063721,20.660463 479.999573,10.829869 480.000000,1.000000 
	C484.024536,1.000000 488.049103,1.000000 492.536285,1.468657 
	C491.840576,14.201178 496.176178,27.069370 488.958740,38.666740 
z"/>
<path fill="#FFCC8F" opacity="1.000000" stroke="none" 
	d="
M489.416077,38.772846 
	C496.176178,27.069370 491.840576,14.201178 492.999451,1.468657 
	C496.692902,1.000000 500.385834,1.000000 504.539368,1.000000 
	C504.999603,8.583903 505.034485,16.168032 504.986176,23.751631 
	C504.954712,28.691824 505.962311,33.875938 501.971130,38.362015 
	C497.923706,38.776176 493.898560,38.827564 489.416077,38.772846 
z"/>
<path fill="#FEDFBA" opacity="1.000000" stroke="none" 
	d="
M54.477745,38.901901 
	C46.340054,27.247757 51.485241,14.230872 50.000031,1.468657 
	C53.692909,1.000000 57.385818,1.000000 61.539364,1.468657 
	C63.356903,13.985949 58.558289,26.711355 65.975243,38.093712 
	C62.292465,38.375549 58.609684,38.657391 54.477745,38.901901 
z"/>
<path fill="#FEBD71" opacity="1.000000" stroke="none" 
	d="
M128.022614,38.594246 
	C124.332825,38.666721 120.643044,38.739197 116.481583,38.368595 
	C115.006302,32.708054 113.496948,27.526512 113.123238,22.264317 
	C112.622192,15.208878 112.999695,8.091044 113.000000,1.000000 
	C116.692909,1.000000 120.385818,1.000000 124.538681,1.468657 
	C124.998474,6.060269 124.645348,10.220219 125.072754,14.298364 
	C125.922791,22.409103 122.162521,31.102406 128.022614,38.594246 
z"/>
<path fill="#FEDBAE" opacity="1.000000" stroke="none" 
	d="
M66.402176,38.102554 
	C58.558289,26.711355 63.356903,13.985949 62.000000,1.468657 
	C65.692909,1.000000 69.385818,1.000000 73.539368,1.000000 
	C73.999695,7.827013 73.965752,14.654242 74.009491,21.480972 
	C74.045982,27.175982 73.024872,33.078175 77.016014,38.432526 
	C73.631332,38.567364 70.230217,38.339382 66.402176,38.102554 
z"/>
<path fill="#FEB865" opacity="1.000000" stroke="none" 
	d="
M466.961334,38.576408 
	C463.259277,38.657799 459.557190,38.739189 455.429504,38.340160 
	C457.798004,34.918770 458.188629,31.404245 458.078583,27.479359 
	C457.831360,18.659101 458.000397,9.827176 458.000000,1.000000 
	C461.361298,1.000000 464.722565,1.000000 468.541626,1.468657 
	C468.999176,8.724115 469.258453,15.524006 468.916931,22.293587 
	C468.642151,27.740217 467.640472,33.150181 466.961334,38.576408 
z"/>
<path fill="#FEBD71" opacity="1.000000" stroke="none" 
	d="
M467.410278,38.706558 
	C467.640472,33.150181 468.642151,27.740217 468.916931,22.293587 
	C469.258453,15.524006 468.999176,8.724115 468.999695,1.468657 
	C472.361298,1.000000 475.722565,1.000000 479.541931,1.000000 
	C479.999573,10.829869 480.063721,20.660463 479.953308,30.489096 
	C479.925751,32.942982 479.335541,35.390545 478.980286,38.227406 
	C475.257507,38.688099 471.558350,38.762402 467.410278,38.706558 
z"/>
<path fill="#FEC682" opacity="1.000000" stroke="none" 
	d="
M112.541931,1.000000 
	C112.999695,8.091044 112.622192,15.208878 113.123238,22.264317 
	C113.496948,27.526512 115.006302,32.708054 116.032440,38.275467 
	C115.294762,38.711231 114.534554,38.797043 113.314835,38.502857 
	C111.564896,38.322906 110.274467,38.522953 108.984047,38.723003 
	C107.925774,38.771427 106.867500,38.819851 105.419975,38.776749 
	C99.308525,26.824642 103.057381,14.182668 101.999451,1.468657 
	C105.361290,1.000000 108.722572,1.000000 112.541931,1.000000 
z"/>
<path fill="#FB9E2E" opacity="1.000000" stroke="none" 
	d="
M429.842285,33.130203 
	C423.833771,22.664902 417.825256,12.199593 411.908386,1.367142 
	C418.687653,1.000000 425.375275,1.000000 432.531860,1.465494 
	C433.000122,8.811150 433.044617,15.691881 432.957733,22.570950 
	C432.941833,23.829411 432.453278,25.100189 432.074188,26.331812 
	C431.372650,28.610994 430.590729,30.865446 429.842285,33.130203 
z"/>
<path fill="#FEB053" opacity="1.000000" stroke="none" 
	d="
M457.545898,1.000000 
	C458.000397,9.827176 457.831360,18.659101 458.078583,27.479359 
	C458.188629,31.404245 457.798004,34.918770 454.984222,38.207603 
	C451.597229,38.642933 448.229889,38.730408 444.444458,38.326756 
	C448.772614,35.361992 448.065399,30.977129 448.025299,26.738171 
	C447.944214,18.159466 448.000397,9.579466 448.000000,1.000000 
	C451.030609,1.000000 454.061188,1.000000 457.545898,1.000000 
z"/>
<path fill="#FEB865" opacity="1.000000" stroke="none" 
	d="
M128.462433,38.708900 
	C122.162521,31.102406 125.922791,22.409103 125.072754,14.298364 
	C124.645348,10.220219 124.998474,6.060269 124.999313,1.468657 
	C128.030594,1.000000 131.061188,1.000000 134.544754,1.468656 
	C134.997528,11.873555 134.875534,21.812412 135.088745,31.744074 
	C135.137726,34.026371 136.338272,36.283951 137.008881,38.552902 
	C134.306671,38.643120 131.604477,38.733337 128.462433,38.708900 
z"/>
<path fill="#FB9E2E" opacity="1.000000" stroke="none" 
	d="
M169.176437,20.548248 
	C169.042770,20.990971 168.909088,21.433693 168.238068,22.108189 
	C167.525681,22.752743 167.350632,23.165525 167.175568,23.578308 
	C167.175568,23.578308 167.300201,23.775047 166.947647,24.040976 
	C166.451385,24.715519 166.307693,25.124134 166.164001,25.532749 
	C166.164001,25.532751 166.259064,25.808296 165.783447,25.938168 
	C159.971512,28.939610 159.036377,28.428577 159.007706,22.496986 
	C158.973068,15.331480 158.999817,8.165675 159.000000,1.000000 
	C165.687637,1.000000 172.375290,1.000000 179.531464,1.000001 
	C177.876328,5.221510 175.752640,9.443019 173.082520,14.004480 
	C172.409805,14.725927 172.283554,15.107422 172.157288,15.488914 
	C172.157288,15.488914 172.218887,15.789226 171.871552,16.029860 
	C171.324219,16.761703 171.124207,17.252913 170.924179,17.744118 
	C170.868378,17.969522 170.812561,18.194929 170.288422,18.784559 
	C169.605545,19.615273 169.390991,20.081758 169.176437,20.548248 
z"/>
<path fill="#FCA53B" opacity="1.000000" stroke="none" 
	d="
M158.555832,1.000000 
	C158.999817,8.165675 158.973068,15.331480 159.007706,22.496986 
	C159.036377,28.428577 159.971512,28.939610 165.677368,26.038097 
	C164.897232,28.225620 163.747589,30.443085 162.054810,32.907803 
	C161.393326,33.480515 161.274963,33.805973 161.156601,34.131432 
	C161.156601,34.131432 161.127213,34.576408 160.753052,34.923931 
	C158.883133,36.453827 157.387375,37.636200 155.891632,38.818577 
	C155.059631,38.790905 154.227631,38.763229 153.125061,38.161331 
	C152.236374,35.292583 151.130783,33.007816 151.084625,30.701845 
	C150.886505,20.804632 151.000046,10.901179 151.000000,1.000000 
	C153.370560,1.000000 155.741104,1.000000 158.555832,1.000000 
z"/>
<path fill="#E59C43" opacity="1.000000" stroke="none" 
	d="
M520.240479,582.920532 
	C527.504700,569.518127 535.046875,556.063721 542.754395,542.704834 
	C558.603088,515.235657 574.540344,487.817566 590.720581,460.189209 
	C591.000000,461.714355 591.000000,463.428711 591.000000,465.571533 
	C588.414795,469.493774 585.574280,472.830078 583.300415,476.515961 
	C579.280457,483.032166 575.592102,489.753540 571.789062,496.402802 
	C565.017395,508.242523 558.346313,520.140564 551.482727,531.926575 
	C541.950256,548.295532 532.288452,564.589172 522.639160,580.889709 
	C522.166687,581.687805 521.284607,582.243347 520.240479,582.920532 
z"/>
<path fill="#FEB053" opacity="1.000000" stroke="none" 
	d="
M137.439240,38.672256 
	C136.338272,36.283951 135.137726,34.026371 135.088745,31.744074 
	C134.875534,21.812412 134.997528,11.873555 134.998871,1.468656 
	C137.370560,1.000000 139.741104,1.000000 142.555725,1.468657 
	C143.340515,14.122935 143.681244,26.308556 144.021973,38.494171 
	C141.971176,38.593319 139.920395,38.692467 137.439240,38.672256 
z"/>
<path fill="#FFAB47" opacity="1.000000" stroke="none" 
	d="
M144.397888,38.626854 
	C143.681244,26.308556 143.340515,14.122935 142.999893,1.468657 
	C145.370560,1.000000 147.741104,1.000000 150.555832,1.000000 
	C151.000046,10.901179 150.886505,20.804632 151.084625,30.701845 
	C151.130783,33.007816 152.236374,35.292583 152.851593,38.008465 
	C152.415344,38.460201 151.981995,38.490582 151.196228,38.215927 
	C150.627136,38.086525 150.410477,38.262161 150.193817,38.437798 
	C148.387146,38.545044 146.580490,38.652290 144.397888,38.626854 
z"/>
<path fill="#FFAB47" opacity="1.000000" stroke="none" 
	d="
M447.555847,1.000000 
	C448.000397,9.579466 447.944214,18.159466 448.025299,26.738171 
	C448.065399,30.977129 448.772614,35.361992 444.003540,38.195366 
	C442.581787,38.632259 441.182922,38.709419 439.385742,38.259460 
	C439.325775,33.959049 439.890930,30.189680 439.956299,26.411659 
	C440.102814,17.943390 440.000824,9.470819 440.000000,1.000000 
	C442.370575,1.000000 444.741119,1.000000 447.555847,1.000000 
z"/>
<path fill="#FCA53B" opacity="1.000000" stroke="none" 
	d="
M439.562500,1.000000 
	C440.000824,9.470819 440.102814,17.943390 439.956299,26.411659 
	C439.890930,30.189680 439.325775,33.959049 438.986023,38.121841 
	C437.622986,38.608170 436.261322,38.705006 434.490845,38.538349 
	C434.082031,38.274857 434.022278,37.926754 433.963806,37.598244 
	C433.194031,36.918213 432.482697,36.566692 431.771362,36.215172 
	C431.771362,36.215168 431.824310,36.201618 431.859741,35.853355 
	C431.508148,35.063267 431.121124,34.621437 430.734131,34.179604 
	C430.734131,34.179604 430.805939,34.058434 430.767273,33.858788 
	C430.428802,33.486565 430.129028,33.313992 429.829224,33.141418 
	C429.829224,33.141415 429.822968,33.100136 429.832642,33.115166 
	C430.590729,30.865446 431.372650,28.610994 432.074188,26.331812 
	C432.453278,25.100189 432.941833,23.829411 432.957733,22.570950 
	C433.044617,15.691881 433.000122,8.811150 433.000427,1.465494 
	C435.041656,1.000000 437.083344,1.000000 439.562500,1.000000 
z"/>
<path fill="#E49D47" opacity="1.000000" stroke="none" 
	d="
M1.000000,460.399994 
	C9.474652,474.404724 17.976242,488.793732 26.412682,503.220795 
	C30.677208,510.513519 34.823929,517.875183 39.072624,525.557129 
	C36.710983,522.964539 33.926933,520.249207 31.959337,517.034180 
	C25.686041,506.783813 19.660631,496.379822 13.648285,485.972351 
	C9.523206,478.831757 5.579253,471.586487 1.277167,464.194031 
	C1.000000,462.933319 1.000000,461.866669 1.000000,460.399994 
z"/>
<path fill="#DD994A" opacity="1.000000" stroke="none" 
	d="
M583.002197,950.391479 
	C585.448486,953.233521 587.948303,956.426697 590.724121,959.809937 
	C591.000000,961.066711 591.000000,962.133362 591.000000,963.600037 
	C588.351929,959.580872 585.703796,955.161743 583.002197,950.391479 
z"/>
<path fill="#E49D47" opacity="1.000000" stroke="none" 
	d="
M0.999995,958.428467 
	C2.463365,957.020081 3.926741,956.040222 5.727669,955.067871 
	C4.548865,957.908081 3.032508,960.740784 1.258075,963.786743 
	C1.000000,962.285645 1.000000,960.571289 0.999995,958.428467 
z"/>
<path fill="#E49D47" opacity="1.000000" stroke="none" 
	d="
M102.341980,788.895081 
	C102.869461,786.453796 103.240685,783.577026 104.574585,781.252808 
	C110.081070,771.658264 115.846275,762.211121 121.590790,752.755005 
	C123.272728,749.986328 122.892883,748.027649 120.978096,745.194092 
	C116.212074,738.141113 111.935371,730.713501 108.089806,723.118530 
	C107.295570,721.549927 108.828499,718.380371 109.971672,716.329224 
	C114.102219,708.918274 118.114555,701.385010 122.945641,694.436096 
	C128.266983,686.782043 128.258026,680.092896 122.580551,672.620483 
	C119.370361,668.395325 117.535904,663.125061 115.159332,657.914917 
	C119.512337,664.512634 124.231346,671.298035 127.905663,678.608521 
	C130.312332,683.396912 133.333420,685.137268 138.370728,684.524780 
	C140.305511,684.289551 142.310791,684.634338 144.324646,685.199707 
	C141.912674,686.173523 139.460022,686.662415 136.684326,687.229370 
	C135.923843,687.260010 135.486420,687.212524 134.909119,686.912598 
	C134.190933,686.817383 133.612625,686.974609 133.033752,687.091309 
	C133.033203,687.050781 133.111664,687.071167 132.968338,687.078369 
	C132.639313,687.119690 132.461166,687.177185 131.994675,687.507935 
	C125.292580,698.435364 118.813805,709.071045 112.594391,719.856262 
	C111.983902,720.914917 112.577217,723.098938 113.273102,724.409424 
	C117.630608,732.615356 122.017815,740.814758 126.734421,748.816345 
	C128.708115,752.164734 130.598099,755.145081 135.999130,755.131653 
	C240.639496,754.871338 345.280701,754.900757 449.921570,755.032471 
	C454.452881,755.038208 457.599304,753.974976 459.924133,749.894958 
	C460.882111,749.952209 461.430237,749.972656 462.015503,750.354126 
	C462.087921,750.954651 462.123199,751.194031 462.158508,751.433472 
	C461.422394,752.845215 460.686249,754.256958 459.278412,755.967529 
	C456.312164,756.515747 454.017670,756.982605 451.723083,756.983337 
	C347.092072,757.017639 242.461075,757.009827 137.830063,757.016479 
	C134.833542,757.016724 131.837006,757.120300 128.840485,757.175720 
	C128.840485,757.175720 128.943573,757.195251 128.829941,756.936279 
	C128.391907,756.476624 128.067505,756.276062 127.743118,756.075500 
	C126.750923,754.793152 125.758728,753.510742 124.245323,751.554749 
	C116.880409,764.214844 109.754402,776.464233 102.341980,788.895081 
z"/>
<path fill="#E49D47" opacity="1.000000" stroke="none" 
	d="
M148.028015,685.164490 
	C153.178177,684.933838 158.328262,684.504456 163.478531,684.502075 
	C252.469803,684.460815 341.461090,684.463623 430.452393,684.485291 
	C439.435425,684.487488 448.418427,684.673584 457.515381,685.301453 
	C457.392578,686.612915 457.155853,687.397339 456.521393,688.092041 
	C453.747498,687.718628 451.371368,687.434998 448.729767,686.823486 
	C446.496552,686.332947 444.528809,686.028198 442.561005,686.027710 
	C346.470215,686.004456 250.379395,686.012634 154.288605,685.972168 
	C152.201630,685.971252 150.114868,685.445435 148.028015,685.164490 
z"/>
<path fill="#E59C43" opacity="1.000000" stroke="none" 
	d="
M456.919098,688.181702 
	C457.155853,687.397339 457.392578,686.612915 457.754761,685.545532 
	C459.023712,684.461426 460.605286,683.915771 461.244141,682.820435 
	C469.199585,669.179810 477.017975,655.459290 484.894989,641.405945 
	C485.929047,639.831055 487.132843,638.722168 487.921234,637.370972 
	C498.432709,619.356079 508.885986,601.307190 519.637329,583.082031 
	C519.433777,584.618225 519.257507,586.512756 518.409119,588.031921 
	C512.779114,598.112915 507.036163,608.131409 501.270050,618.135681 
	C493.943451,630.847351 486.604523,643.552368 479.186340,656.210693 
	C473.730774,665.520142 468.197784,674.785583 462.572754,683.993347 
	C460.906372,686.721130 460.823639,688.855652 462.703339,691.689514 
	C467.336395,698.674133 471.513794,705.960632 475.892395,713.114685 
	C479.991150,719.811462 478.228912,725.992615 474.352722,732.054382 
	C472.037231,735.675354 469.667542,739.284607 467.702271,743.095093 
	C466.931488,744.589600 467.198822,746.619507 466.950043,748.841064 
	C466.375793,748.791138 465.844879,748.305664 464.773773,747.520630 
	C463.922607,747.905457 463.611633,748.589966 463.300690,749.274475 
	C463.300690,749.274475 463.064056,749.023438 462.914917,749.139160 
	C462.503326,749.500977 462.240875,749.747070 461.978394,749.993103 
	C461.430237,749.972656 460.882111,749.952209 460.023682,749.543335 
	C464.258759,741.221802 468.692810,733.221497 473.406952,725.389893 
	C475.166931,722.466064 475.230255,720.210144 473.423035,717.183960 
	C467.721222,707.636292 462.392303,697.865906 456.919098,688.181702 
z"/>
<path fill="#D39545" opacity="1.000000" stroke="none" 
	d="
M147.646683,685.067383 
	C150.114868,685.445435 152.201630,685.971252 154.288605,685.972168 
	C250.379395,686.012634 346.470215,686.004456 442.561005,686.027710 
	C444.528809,686.028198 446.496552,686.332947 448.266052,686.892395 
	C348.871399,687.299500 249.675034,687.312134 150.478668,687.313171 
	C145.988235,687.313232 141.497803,687.207703 137.007370,687.151367 
	C139.460022,686.662415 141.912674,686.173523 144.649338,685.428467 
	C145.710678,685.104980 146.488007,685.037659 147.646683,685.067383 
z"/>
<path fill="#E49D47" opacity="1.000000" stroke="none" 
	d="
M72.039200,583.298706 
	C80.373901,597.010742 88.667358,611.111633 96.985695,625.197876 
	C100.093269,630.460266 103.258850,635.688416 106.754562,640.984863 
	C109.739227,646.119263 112.367310,651.200928 114.998955,656.646179 
	C113.322830,655.115234 111.326523,653.415649 110.018501,651.292175 
	C104.485779,642.310059 99.061272,633.257629 93.784966,624.122437 
	C89.409409,616.546936 85.239677,608.850281 81.086235,601.149353 
	C77.971649,595.374512 75.027748,589.507690 72.039200,583.298706 
z"/>
<path fill="#FFCC8F" opacity="1.000000" stroke="none" 
	d="
M156.281464,38.924839 
	C157.387375,37.636200 158.883133,36.453827 160.694275,35.139023 
	C161.294876,38.214451 159.535950,39.218781 156.281464,38.924839 
z"/>
<path fill="#FFCC8F" opacity="1.000000" stroke="none" 
	d="
M109.380356,38.818718 
	C110.274467,38.522953 111.564896,38.322906 112.934799,38.436394 
	C111.935074,38.804760 110.855865,38.859596 109.380356,38.818718 
z"/>
<path fill="#FEB053" opacity="1.000000" stroke="none" 
	d="
M431.783691,36.502274 
	C432.482697,36.566692 433.194031,36.918213 433.674866,37.633701 
	C433.252411,38.024544 433.060455,38.051414 432.868500,38.078285 
	C432.511017,37.648647 432.153534,37.219013 431.783691,36.502274 
z"/>
<path fill="#FCA53B" opacity="1.000000" stroke="none" 
	d="
M171.174240,17.623302 
	C171.124207,17.252913 171.324219,16.761703 171.761902,16.136963 
	C171.807816,16.503115 171.616058,17.002800 171.174240,17.623302 
z"/>
<path fill="#FCA53B" opacity="1.000000" stroke="none" 
	d="
M169.429688,20.435352 
	C169.390991,20.081758 169.605545,19.615273 170.070984,19.056675 
	C170.108902,19.417198 169.895920,19.869829 169.429688,20.435352 
z"/>
<path fill="#FEB053" opacity="1.000000" stroke="none" 
	d="
M430.723511,34.485344 
	C431.121124,34.621437 431.508148,35.063267 431.844666,35.830551 
	C431.433746,35.701035 431.073303,35.246056 430.723511,34.485344 
z"/>
<path fill="#FEB865" opacity="1.000000" stroke="none" 
	d="
M150.375153,38.458427 
	C150.410477,38.262161 150.627136,38.086525 150.876312,38.147308 
	C150.908844,38.383728 150.556488,38.479053 150.375153,38.458427 
z"/>
<path fill="#FEB865" opacity="1.000000" stroke="none" 
	d="
M432.995789,38.306831 
	C433.060455,38.051414 433.252411,38.024544 433.733337,37.962212 
	C434.022278,37.926754 434.082031,38.274857 434.088043,38.450417 
	C433.770416,38.595772 433.446747,38.565575 432.995789,38.306831 
z"/>
<path fill="#FEB053" opacity="1.000000" stroke="none" 
	d="
M429.906311,33.388466 
	C430.129028,33.313992 430.428802,33.486565 430.764893,33.929169 
	C430.528595,34.011307 430.255981,33.823410 429.906311,33.388466 
z"/>
<path fill="#FFCC8F" opacity="1.000000" stroke="none" 
	d="
M161.345230,33.986946 
	C161.274963,33.805973 161.393326,33.480515 161.785553,33.108818 
	C161.958664,33.372704 161.783478,33.632664 161.345230,33.986946 
z"/>
<path fill="#FCA53B" opacity="1.000000" stroke="none" 
	d="
M166.441772,25.354191 
	C166.307693,25.124134 166.451385,24.715519 166.882599,24.137554 
	C167.019913,24.370682 166.869736,24.773157 166.441772,25.354191 
z"/>
<path fill="#FCA53B" opacity="1.000000" stroke="none" 
	d="
M167.460281,23.415154 
	C167.350632,23.165525 167.525681,22.752743 168.029907,22.227121 
	C168.154388,22.493521 167.949692,22.872761 167.460281,23.415154 
z"/>
<path fill="#FCA53B" opacity="1.000000" stroke="none" 
	d="
M172.411041,15.321243 
	C172.283554,15.107422 172.409805,14.725927 172.803375,14.192997 
	C172.935379,14.412231 172.800079,14.782902 172.411041,15.321243 
z"/>
<path fill="#E49D47" opacity="1.000000" stroke="none" 
	d="
M24.668888,923.147217 
	C26.689819,918.283325 28.608368,913.025879 31.341955,908.233276 
	C42.150658,889.282837 53.222935,870.482849 64.181755,851.617920 
	C73.039177,836.370300 82.196037,821.283020 90.554939,805.766296 
	C93.744667,799.845154 96.407242,793.768433 101.731064,789.064575 
	C93.121468,804.782837 84.237991,820.559692 75.189293,836.241150 
	C58.491074,865.179382 41.695839,894.061646 24.668888,923.147217 
z"/>
<path fill="#E4A961" opacity="1.000000" stroke="none" 
	d="
M129.087860,757.539307 
	C131.837006,757.120300 134.833542,757.016724 137.830063,757.016479 
	C242.461075,757.009827 347.092072,757.017639 451.723083,756.983337 
	C454.017670,756.982605 456.312164,756.515747 459.049164,756.160583 
	C457.507568,756.750610 455.524780,758.049988 453.539246,758.054199 
	C400.917114,758.165161 348.294617,758.144409 295.672211,758.142090 
	C241.884109,758.139771 188.095993,758.135315 134.307892,758.119202 
	C132.650330,758.118713 130.992798,757.978149 129.087860,757.539307 
z"/>
<path fill="#E49D47" opacity="1.000000" stroke="none" 
	d="
M6.359673,954.876831 
	C7.448464,951.634094 8.472579,948.016235 10.273405,944.838501 
	C13.127205,939.802673 16.500610,935.061279 20.025108,930.284546 
	C15.811826,938.482239 11.227610,946.590698 6.359673,954.876831 
z"/>
<path fill="#DD994A" opacity="1.000000" stroke="none" 
	d="
M487.759521,785.559082 
	C489.618683,787.766968 491.782257,790.181885 493.385956,792.924194 
	C496.373138,798.032410 499.034485,803.331055 501.735657,808.932007 
	C497.030334,801.513611 492.420807,793.713684 487.759521,785.559082 
z"/>
<path fill="#DD994A" opacity="1.000000" stroke="none" 
	d="
M528.768982,856.518921 
	C532.154907,861.862061 535.589050,867.561462 538.999756,873.646240 
	C535.589905,868.312866 532.203613,862.594055 528.768982,856.518921 
z"/>
<path fill="#DD994A" opacity="1.000000" stroke="none" 
	d="
M539.012573,874.374023 
	C539.813843,874.421143 541.085999,874.596985 541.435547,875.259521 
	C544.058777,880.231873 546.500122,885.300110 548.958984,890.722412 
	C545.631897,885.647034 542.344055,880.187622 539.012573,874.374023 
z"/>
<path fill="#DD994A" opacity="1.000000" stroke="none" 
	d="
M573.111389,933.358032 
	C578.388489,937.204468 581.170227,942.948242 582.987854,949.655396 
	C579.686707,944.600464 576.418396,939.152222 573.111389,933.358032 
z"/>
<path fill="#DD994A" opacity="1.000000" stroke="none" 
	d="
M510.087524,824.343994 
	C513.367798,829.420471 516.688965,834.847412 519.982056,840.653809 
	C516.678833,835.586975 513.403625,830.140747 510.087524,824.343994 
z"/>
<path fill="#DD994A" opacity="1.000000" stroke="none" 
	d="
M520.004089,841.397339 
	C522.950378,845.843872 525.940247,850.642883 528.851074,855.828979 
	C525.863892,851.393982 522.955750,846.571960 520.004089,841.397339 
z"/>
<path fill="#DD994A" opacity="1.000000" stroke="none" 
	d="
M478.957458,770.396179 
	C481.913727,774.842041 484.912170,779.643860 487.826813,784.832947 
	C484.828522,780.397522 481.914093,775.574829 478.957458,770.396179 
z"/>
<path fill="#DD994A" opacity="1.000000" stroke="none" 
	d="
M552.961548,898.405029 
	C555.906677,902.859802 558.901917,907.667908 561.803467,912.859253 
	C558.810303,908.414429 555.910950,903.586426 552.961548,898.405029 
z"/>
<path fill="#DD994A" opacity="1.000000" stroke="none" 
	d="
M561.750732,913.632080 
	C563.794189,916.615112 565.898315,919.943542 567.963074,923.661926 
	C565.886292,920.693787 563.848816,917.335632 561.750732,913.632080 
z"/>
<path fill="#E49D47" opacity="1.000000" stroke="none" 
	d="
M20.652969,930.144287 
	C19.241861,926.942078 20.996092,924.917786 24.037954,923.317200 
	C23.253904,925.532166 22.091534,927.749817 20.652969,930.144287 
z"/>
<path fill="#DD994A" opacity="1.000000" stroke="none" 
	d="
M501.672241,809.634888 
	C503.086151,811.599548 504.556244,813.911194 506.006226,816.604675 
	C504.566925,814.651672 503.147675,812.316772 501.672241,809.634888 
z"/>
<path fill="#DD994A" opacity="1.000000" stroke="none" 
	d="
M548.927246,891.415894 
	C550.260559,893.146729 551.637756,895.224304 552.976685,897.692932 
	C551.616028,895.976868 550.293518,893.869751 548.927246,891.415894 
z"/>
<path fill="#DD994A" opacity="1.000000" stroke="none" 
	d="
M474.947693,763.400635 
	C476.283813,765.135010 477.654358,767.217346 478.986633,769.690552 
	C477.626282,767.970520 476.304199,765.859619 474.947693,763.400635 
z"/>
<path fill="#DD994A" opacity="1.000000" stroke="none" 
	d="
M567.982056,924.417358 
	C569.296692,926.150024 570.657227,928.224670 571.988281,930.678955 
	C570.648499,928.958862 569.338196,926.859070 567.982056,924.417358 
z"/>
<path fill="#DD994A" opacity="1.000000" stroke="none" 
	d="
M469.021637,750.985107 
	C470.016937,753.092102 471.012238,755.199158 471.976440,757.676025 
	C470.624756,755.950500 469.304108,753.855103 468.206482,751.390137 
	C468.626862,751.008728 468.824249,750.996887 469.021637,750.985107 
z"/>
<path fill="#DD994A" opacity="1.000000" stroke="none" 
	d="
M506.040161,817.348816 
	C507.008942,818.439026 508.012604,819.862122 508.981750,821.669312 
	C507.989838,820.596130 507.032440,819.138855 506.040161,817.348816 
z"/>
<path fill="#DD994A" opacity="1.000000" stroke="none" 
	d="
M471.988800,758.384827 
	C472.967743,759.478882 473.987976,760.905518 474.973206,762.707336 
	C473.968872,761.627502 472.999481,760.172424 471.988800,758.384827 
z"/>
<path fill="#DD994A" opacity="1.000000" stroke="none" 
	d="
M463.571777,749.145630 
	C463.611633,748.589966 463.922607,747.905457 464.461853,747.337585 
	C464.407715,747.975098 464.125275,748.495972 463.571777,749.145630 
z"/>
<path fill="#E59C43" opacity="1.000000" stroke="none" 
	d="
M468.881104,750.751526 
	C468.824249,750.996887 468.626862,751.008728 468.134277,751.048706 
	C467.522400,750.969360 467.322327,750.753662 467.245117,750.201172 
	C467.747833,750.154297 468.244232,750.336121 468.881104,750.751526 
z"/>
<path fill="#DD994A" opacity="1.000000" stroke="none" 
	d="
M508.953552,822.328918 
	C509.292908,822.471375 509.648071,822.905457 510.009003,823.638672 
	C509.666321,823.498657 509.317841,823.059631 508.953552,822.328918 
z"/>
<path fill="#DD994A" opacity="1.000000" stroke="none" 
	d="
M462.015503,750.354126 
	C462.240875,749.747070 462.503326,749.500977 463.044983,749.252563 
	C463.094757,749.834351 462.865326,750.418518 462.397186,751.218140 
	C462.123199,751.194031 462.087921,750.954651 462.015503,750.354126 
z"/>
<path fill="#DD994A" opacity="1.000000" stroke="none" 
	d="
M571.980408,931.325684 
	C572.229187,931.303894 572.519287,931.582947 572.821045,932.178711 
	C572.562378,932.205811 572.291992,931.916199 571.980408,931.325684 
z"/>
<path fill="#E4A961" opacity="1.000000" stroke="none" 
	d="
M127.816513,756.368652 
	C128.067505,756.276062 128.391907,756.476624 128.786896,756.966187 
	C128.534943,757.057434 128.212418,756.859619 127.816513,756.368652 
z"/>
<path fill="#E49D47" opacity="1.000000" stroke="none" 
	d="
M50.029030,545.312134 
	C56.038414,555.019043 62.013771,565.132629 68.041397,575.597412 
	C67.008110,575.057434 65.596710,574.370667 64.889481,573.242371 
	C59.990364,565.427002 55.185734,557.550476 50.501484,549.604675 
	C49.891312,548.569580 50.142677,547.026672 50.029030,545.312134 
z"/>
<path fill="#E49D47" opacity="1.000000" stroke="none" 
	d="
M39.052601,526.287842 
	C42.737713,532.005310 46.377140,538.118469 50.061783,544.586548 
	C49.353710,544.705200 48.172909,544.693909 47.912369,544.198547 
	C44.863838,538.402344 41.953648,532.533325 39.052601,526.287842 
z"/>
<path fill="#E49D47" opacity="1.000000" stroke="none" 
	d="
M68.023926,576.307495 
	C69.368011,578.023743 70.676689,580.135559 72.038116,582.590576 
	C68.326500,582.435059 68.237114,579.516663 68.023926,576.307495 
z"/>
<path fill="#FFFEFB" opacity="1.000000" stroke="none" 
	d="
M136.684326,687.229370 
	C141.497803,687.207703 145.988235,687.313232 150.478668,687.313171 
	C249.675034,687.312134 348.871399,687.299500 448.531494,687.220215 
	C451.371368,687.434998 453.747498,687.718628 456.521362,688.092041 
	C462.392303,697.865906 467.721222,707.636292 473.423035,717.183960 
	C475.230255,720.210144 475.166931,722.466064 473.406952,725.389893 
	C468.692810,733.221497 464.258759,741.221802 459.613892,749.506592 
	C457.599304,753.974976 454.452881,755.038208 449.921570,755.032471 
	C345.280701,754.900757 240.639496,754.871338 135.999130,755.131653 
	C130.598099,755.145081 128.708115,752.164734 126.734421,748.816345 
	C122.017815,740.814758 117.630608,732.615356 113.273102,724.409424 
	C112.577217,723.098938 111.983902,720.914917 112.594391,719.856262 
	C118.813805,709.071045 125.292580,698.435364 132.135025,687.607056 
	C132.834686,687.445251 133.014816,687.316956 133.111664,687.071167 
	C133.111664,687.071167 133.033203,687.050781 133.364990,687.172852 
	C134.147507,687.251648 134.598236,687.208374 135.048981,687.165100 
	C135.486420,687.212524 135.923843,687.260010 136.684326,687.229370 
z"/>
<path fill="#E59C43" opacity="1.000000" stroke="none" 
	d="
M134.909119,686.912598 
	C134.598236,687.208374 134.147507,687.251648 133.365540,687.213379 
	C133.612625,686.974609 134.190933,686.817383 134.909119,686.912598 
z"/>
<path fill="#E59C43" opacity="1.000000" stroke="none" 
	d="
M132.968338,687.078369 
	C133.014816,687.316956 132.834686,687.445251 132.430923,687.357117 
	C132.461166,687.177185 132.639313,687.119690 132.968338,687.078369 
z"/>
</svg>